<?xml version="1.0" encoding="UTF-8"?>
<svg width="10.553mm" height="10.553mm" version="1.1" viewBox="0 0 10.553 10.553" xmlns="http://www.w3.org/2000/svg">
<path d="m2.8669 5.4205q0-0.62597 0.16665-1.1937 0.16665-0.56774 0.4848-0.9899t0.78781-0.66964q0.46965-0.26203 1.0605-0.26203 0.43935 0 0.84841 0.17469 0.40905 0.16013 0.72721 0.53862 0.31815 0.36393 0.5151 0.97534 0.19695 0.61141 0.19695 1.514 0 0.87344-0.2424 1.4412-0.22725 0.55318-0.59086 0.87344-0.34845 0.32026-0.74236 0.43672-0.3939 0.11646-0.71206 0.11646-0.75751 0-1.2423-0.36393-0.4848-0.36393-0.77266-0.84433-0.2727-0.49495-0.37875-0.9899-0.10605-0.49495-0.10605-0.75698zm-1.0908 0.23292q0 0.90256 0.28785 1.5868 0.28785 0.6842 0.74236 1.15 0.4545 0.45128 1.0302 0.6842t1.1363 0.23292q0.71206 0 1.3635-0.26203 0.66661-0.26203 1.1817-0.75698 0.5151-0.50951 0.81811-1.2519 0.31815-0.74243 0.31815-1.7032 0-1.0045-0.2424-1.7323-0.2424-0.74243-0.65146-1.2083-0.40905-0.48039-0.95446-0.69875-0.5454-0.23292-1.1514-0.23292-1.0454 0-1.7877 0.39305-0.72721 0.37849-1.1969 0.9899t-0.68176 1.3538q-0.2121 0.74243-0.2121 1.4557z" fill="#EF9595" stroke-width=".1"/>
</svg>
