<?xml version="1.0" encoding="UTF-8"?>
<svg width="10.495mm" height="10.55mm" version="1.1" viewBox="0 0 10.495 10.55" xmlns="http://www.w3.org/2000/svg">
<path d="m2.7453 8.3726q0 0.0762 0.1143 0.1524 0.1143 0.0635 0.254 0.127 0.1397 0.0635 0.2794 0.0889 0.1524 0.0381 0.2032 0.0381 0.127 0 0.254-0.1397 0.1397-0.1397 0.3683-0.4445t0.6096-0.8001 1.0033-1.1938l2.0574 1.5748q0.5334 0.4064 0.9144 0.6604t0.4953 0.254q0.0762 0 0.2032-0.0762 0.1397-0.0635 0.2667-0.1651 0.1397-0.1016 0.2286-0.2159 0.1016-0.127 0.1016-0.2286 0-0.0635-0.0635-0.0762-0.0635-0.0254-0.254-0.0508-0.1397-0.0127-0.8509-0.4064-0.6985-0.4064-1.7145-1.1938l-0.8636-0.6604q0.1651-0.1905 0.4445-0.4953 0.2794-0.3175 0.6096-0.6731 0.3302-0.3556 0.6731-0.7112 0.3429-0.3683 0.635-0.6604 0.2921-0.3048 0.4953-0.4953 0.2032-0.2032 0.254-0.2286 0.1778-0.127 0.2794-0.254 0.1016-0.127 0.1016-0.1905 0-0.127-0.0889-0.1524-0.0889-0.0381-0.1905-0.0381-0.1016 0-0.3302 0.0127-0.2159 0-0.4445 0.0381-0.2159 0.0254-0.3937 0.0889-0.1651 0.0508-0.1651 0.1524 0 0.1651-0.2413 0.5588-0.2286 0.381-0.5842 0.8509-0.3429 0.4699-0.7493 0.9652-0.4064 0.4953-0.7493 0.8763-0.889-0.7112-1.5367-1.2319t-1.0922-0.9017q-0.4445-0.3937-0.7112-0.6604t-0.4191-0.4572q-0.1397-0.1905-0.1905-0.3302-0.0381-0.1524-0.0381-0.2921 0-0.254-0.0889-0.3429-0.0762-0.0889-0.3683-0.0889-0.1397 0-0.3175 0.0381-0.1905 0.0254-0.3556 0.0889-0.1778 0.0508-0.2921 0.127t-0.1143 0.1651q0 0.0762 0.0508 0.1905 0.0381 0.1143 0.2032 0.3175 0.1524 0.1905 0.4826 0.508 0.3175 0.3175 0.8636 0.7874 0.5588 0.4699 1.3843 1.1303 0.8255 0.6477 2.0066 1.5367-0.7366 0.8382-1.3462 1.4351t-1.0541 0.8382q-0.2286 0.127-0.2286 0.254z" fill="#BC7AF9" stroke-width=".1"/>
</svg>
